# xmcd
# 
# Track frame offsets:
#     183
#     5020
#     17335
#     32645
#     52658
#     71700
#     89098
#     109505
#     135140
#     150948
#     167175
#     181733
#     206683
#     222563
#     244940
#     264230
# 
# Disc length: 3879
# 
# Revision: 0
# Processed by: cddbd v1.5.2PL0 Copyright (c) Steve Scherf et al.
# Submitted via: BonkEnc v1.0.8
# 
DISCID=ca0f2510
DTITLE=Gary P Nunn - Live
DYEAR=1991
DGENRE=Country
TTITLE0=Introduction
TTITLE1=Cuttin' A Rug
TTITLE2=If You Don't Believe I Love You (Ask My Wife)
TTITLE3=Cut and Putt
TTITLE4=The Last Thing I Needed
TTITLE5=Rita Ballou
TTITLE6=The Money's No Good
TTITLE7=Reggae Armadillo (AO)
TTITLE8=Town and Country Taverns
TTITLE9=Angel Eyes
TTITLE10=Born Yesterday
TTITLE11=The Chili Song
TTITLE12=Jaded Lover
TTITLE13=Can't Get The Hell Out Of Texas
TTITLE14=For Old Times Sake
TTITLE15=Couldn't Do Nothing Right
EXTD=
EXTT0=
EXTT1=
EXTT2=
EXTT3=
EXTT4=
EXTT5=
EXTT6=
EXTT7=
EXTT8=
EXTT9=
EXTT10=
EXTT11=
EXTT12=
EXTT13=
EXTT14=
EXTT15=
PLAYORDER=
